<mxfile host="app.diagrams.net" modified="2023-09-03T13:33:12.696Z" agent="Mozilla/5.0 (X11; Linux x86_64; rv:109.0) Gecko/20100101 Firefox/117.0" version="21.7.2" etag="o-GRxC4wYLHWZMmzyKxR" type="github">
  <diagram name="Page-1" id="JtBVmnv2xaD1w4FKhaQW">
    <mxGraphModel>
      <root>
        <mxCell id="0" />
        <mxCell id="1" parent="0" />
      </root>
    </mxGraphModel>
  </diagram>
</mxfile>
